<svg xmlns="http://www.w3.org/2000/svg" aria-hidden="true" class="svg-inline--fa fa-list" data-icon="list" data-prefix="fas" viewBox="0 0 512 512"><path fill="currentColor" d="M40 48c-13 0-24 11-24 24v48c0 13 11 24 24 24h48c13 0 24-11 24-24V72c0-13-11-24-24-24zm152 16a32 32 0 1 0 0 64h288a32 32 0 1 0 0-64zm0 160a32 32 0 1 0 0 64h288a32 32 0 1 0 0-64zm0 160a32 32 0 1 0 0 64h288a32 32 0 1 0 0-64zM16 232v48c0 13 11 24 24 24h48c13 0 24-11 24-24v-48c0-13-11-24-24-24H40c-13 0-24 11-24 24m24 136c-13 0-24 11-24 24v48c0 13 11 24 24 24h48c13 0 24-11 24-24v-48c0-13-11-24-24-24z"/></svg>