<svg xmlns="http://www.w3.org/2000/svg" aria-hidden="true" class="svg-inline--fa fa-rectangle-list" data-icon="rectangle-list" data-prefix="fas" viewBox="0 0 576 512"><path fill="currentColor" d="M0 96c0-35 29-64 64-64h448c35 0 64 29 64 64v320c0 35-29 64-64 64H64c-35 0-64-29-64-64zm128 192a32 32 0 1 0 0-64 32 32 0 1 0 0 64m32-128a32 32 0 1 0-64 0 32 32 0 1 0 64 0m-32 224a32 32 0 1 0 0-64 32 32 0 1 0 0 64m96-248a24 24 0 1 0 0 48h224a24 24 0 1 0 0-48zm0 96a24 24 0 1 0 0 48h224a24 24 0 1 0 0-48zm0 96a24 24 0 1 0 0 48h224a24 24 0 1 0 0-48z"/></svg>