<svg xmlns="http://www.w3.org/2000/svg" aria-hidden="true" class="svg-inline--fa fa-handshake-angle" data-icon="handshake-angle" data-prefix="fas" viewBox="0 0 640 512"><path fill="currentColor" d="M544 248v3l70-69c22-22 22-58 0-80l-78-78a56 56 0 0 0-80 0l-40 41-8-1H296c-37 0-68 28-72 64v120a40 40 0 1 0 80 0v-88h160c44 0 80 36 80 80zm-208-56v56a72 72 0 1 1-144 0V129c-36 7-66 33-76 69l-16 57-74 73a56 56 0 0 0 0 80l78 78c22 22 58 22 80 0l37-38h163a48 48 0 0 0 45-64h3a48 48 0 0 0 35-81 56 56 0 0 0-11-111z"/></svg>