<svg xmlns="http://www.w3.org/2000/svg" aria-hidden="true" class="svg-inline--fa fa-heart-pulse" data-icon="heart-pulse" data-prefix="fas" viewBox="0 0 512 512"><path fill="currentColor" d="M228 469 48 300l-12-12h87c22 0 43-14 51-34l11-26 49 110q6 13 22 14c16 1 17-5 22-13l42-85 2 3c9 19 29 31 50 31h104q-4 7-12 12L284 469a41 41 0 0 1-56 0m276-229H372q-5 0-8-4l-23-47q-7-12-21-13c-14-1-18 5-22 13l-41 83-51-114a24 24 0 0 0-44 1l-32 76q-2 5-7 5H16l-7 1q-9-24-9-50v-6A143 143 0 0 1 244 84l12 12 12-12a143 143 0 0 1 244 101v6q0 25-8 49"/></svg>