<svg xmlns="http://www.w3.org/2000/svg" aria-hidden="true" class="svg-inline--fa fa-users" data-icon="users" data-prefix="fas" viewBox="0 0 640 512"><path fill="currentColor" d="M144 0a80 80 0 1 1 0 160 80 80 0 1 1 0-160m368 0a80 80 0 1 1 0 160 80 80 0 1 1 0-160M0 299c0-59 48-107 107-107h42q24 1 45 10l-2 22c0 38 17 73 43 96H21c-11 0-21-10-21-21m405 21a128 128 0 0 0 41-118q21-10 45-10h42c59 0 107 48 107 107 0 11-10 21-21 21zm-181-96a96 96 0 1 1 192 0 96 96 0 1 1-192 0m-96 261c0-73 60-133 133-133h118c73 0 133 60 133 133 0 15-12 27-27 27H155c-15 0-27-12-27-27"/></svg>